<svg xmlns="http://www.w3.org/2000/svg" width="292" height="346"><g data-name="Group 224" fill="#0fbf61"><g data-name="Group 97"><path data-name="Rectangle 86" d="M286 0h6v6h-6z"/><path data-name="Rectangle 87" d="M264 0h6v6h-6z"/><path data-name="Rectangle 88" d="M242 0h6v6h-6z"/><path data-name="Rectangle 89" d="M220 0h6v6h-6z"/><path data-name="Rectangle 90" d="M198 0h6v6h-6z"/><path data-name="Rectangle 91" d="M176 0h6v6h-6z"/><path data-name="Rectangle 92" d="M154 0h6v6h-6z"/><path data-name="Rectangle 93" d="M132 0h6v6h-6z"/><path data-name="Rectangle 94" d="M111 0h6v6h-6z"/><path data-name="Rectangle 95" d="M88 0h6v6h-6z"/><path data-name="Rectangle 96" d="M66 0h6v6h-6z"/><path data-name="Rectangle 97" d="M44 0h6v6h-6z"/><path data-name="Rectangle 98" d="M22 0h6v6h-6z"/><path data-name="Rectangle 99" d="M0 0h6v6H0z"/></g><g data-name="Group 106"><path data-name="Rectangle 86" d="M286 89h6v6h-6z"/><path data-name="Rectangle 87" d="M264 89h6v6h-6z"/><path data-name="Rectangle 88" d="M242 89h6v6h-6z"/><path data-name="Rectangle 89" d="M220 89h6v6h-6z"/><path data-name="Rectangle 90" d="M198 89h6v6h-6z"/><path data-name="Rectangle 91" d="M176 89h6v6h-6z"/><path data-name="Rectangle 92" d="M154 89h6v6h-6z"/><path data-name="Rectangle 93" d="M132 89h6v6h-6z"/><path data-name="Rectangle 94" d="M111 89h6v6h-6z"/><path data-name="Rectangle 95" d="M88 89h6v6h-6z"/><path data-name="Rectangle 96" d="M66 89h6v6h-6z"/><path data-name="Rectangle 97" d="M44 89h6v6h-6z"/><path data-name="Rectangle 98" d="M22 89h6v6h-6z"/><path data-name="Rectangle 99" d="M0 89h6v6H0z"/></g><g data-name="Group 111"><path data-name="Rectangle 86" d="M286 179h6v5h-6z"/><path data-name="Rectangle 87" d="M264 179h6v5h-6z"/><path data-name="Rectangle 88" d="M242 179h6v5h-6z"/><path data-name="Rectangle 89" d="M220 179h6v5h-6z"/><path data-name="Rectangle 90" d="M198 179h6v5h-6z"/><path data-name="Rectangle 91" d="M176 179h6v5h-6z"/><path data-name="Rectangle 92" d="M154 179h6v5h-6z"/><path data-name="Rectangle 93" d="M132 179h6v5h-6z"/><path data-name="Rectangle 94" d="M111 179h6v5h-6z"/><path data-name="Rectangle 95" d="M88 179h6v5h-6z"/><path data-name="Rectangle 96" d="M66 179h6v5h-6z"/><path data-name="Rectangle 97" d="M44 179h6v5h-6z"/><path data-name="Rectangle 98" d="M22 179h6v5h-6z"/><path data-name="Rectangle 99" d="M0 179h6v5H0z"/></g><g data-name="Group 116"><path data-name="Rectangle 86" d="M286 269h6v5h-6z"/><path data-name="Rectangle 87" d="M264 269h6v5h-6z"/><path data-name="Rectangle 88" d="M242 269h6v5h-6z"/><path data-name="Rectangle 89" d="M220 269h6v5h-6z"/><path data-name="Rectangle 90" d="M198 269h6v5h-6z"/><path data-name="Rectangle 91" d="M176 269h6v5h-6z"/><path data-name="Rectangle 92" d="M154 269h6v5h-6z"/><path data-name="Rectangle 93" d="M132 269h6v5h-6z"/><path data-name="Rectangle 94" d="M111 269h6v5h-6z"/><path data-name="Rectangle 95" d="M88 269h6v5h-6z"/><path data-name="Rectangle 96" d="M66 269h6v5h-6z"/><path data-name="Rectangle 97" d="M44 269h6v5h-6z"/><path data-name="Rectangle 98" d="M22 269h6v5h-6z"/><path data-name="Rectangle 99" d="M0 269h6v5H0z"/></g><g data-name="Group 98"><path data-name="Rectangle 86" d="M286 18h6v5h-6z"/><path data-name="Rectangle 87" d="M264 18h6v5h-6z"/><path data-name="Rectangle 88" d="M242 18h6v5h-6z"/><path data-name="Rectangle 89" d="M220 18h6v5h-6z"/><path data-name="Rectangle 90" d="M198 18h6v5h-6z"/><path data-name="Rectangle 91" d="M176 18h6v5h-6z"/><path data-name="Rectangle 92" d="M154 18h6v5h-6z"/><path data-name="Rectangle 93" d="M132 18h6v5h-6z"/><path data-name="Rectangle 94" d="M111 18h6v5h-6z"/><path data-name="Rectangle 95" d="M88 18h6v5h-6z"/><path data-name="Rectangle 96" d="M66 18h6v5h-6z"/><path data-name="Rectangle 97" d="M44 18h6v5h-6z"/><path data-name="Rectangle 98" d="M22 18h6v5h-6z"/><path data-name="Rectangle 99" d="M0 18h6v5H0z"/></g><g data-name="Group 105"><path data-name="Rectangle 86" d="M286 108h6v5h-6z"/><path data-name="Rectangle 87" d="M264 108h6v5h-6z"/><path data-name="Rectangle 88" d="M242 108h6v5h-6z"/><path data-name="Rectangle 89" d="M220 108h6v5h-6z"/><path data-name="Rectangle 90" d="M198 108h6v5h-6z"/><path data-name="Rectangle 91" d="M176 108h6v5h-6z"/><path data-name="Rectangle 92" d="M154 108h6v5h-6z"/><path data-name="Rectangle 93" d="M132 108h6v5h-6z"/><path data-name="Rectangle 94" d="M111 108h6v5h-6z"/><path data-name="Rectangle 95" d="M88 108h6v5h-6z"/><path data-name="Rectangle 96" d="M66 108h6v5h-6z"/><path data-name="Rectangle 97" d="M44 108h6v5h-6z"/><path data-name="Rectangle 98" d="M22 108h6v5h-6z"/><path data-name="Rectangle 99" d="M0 108h6v5H0z"/></g><g data-name="Group 110"><path data-name="Rectangle 86" d="M286 197h6v6h-6z"/><path data-name="Rectangle 87" d="M264 197h6v6h-6z"/><path data-name="Rectangle 88" d="M242 197h6v6h-6z"/><path data-name="Rectangle 89" d="M220 197h6v6h-6z"/><path data-name="Rectangle 90" d="M198 197h6v6h-6z"/><path data-name="Rectangle 91" d="M176 197h6v6h-6z"/><path data-name="Rectangle 92" d="M154 197h6v6h-6z"/><path data-name="Rectangle 93" d="M132 197h6v6h-6z"/><path data-name="Rectangle 94" d="M111 197h6v6h-6z"/><path data-name="Rectangle 95" d="M88 197h6v6h-6z"/><path data-name="Rectangle 96" d="M66 197h6v6h-6z"/><path data-name="Rectangle 97" d="M44 197h6v6h-6z"/><path data-name="Rectangle 98" d="M22 197h6v6h-6z"/><path data-name="Rectangle 99" d="M0 197h6v6H0z"/></g><g data-name="Group 115"><path data-name="Rectangle 86" d="M286 286h6v6h-6z"/><path data-name="Rectangle 87" d="M264 286h6v6h-6z"/><path data-name="Rectangle 88" d="M242 286h6v6h-6z"/><path data-name="Rectangle 89" d="M220 286h6v6h-6z"/><path data-name="Rectangle 90" d="M198 286h6v6h-6z"/><path data-name="Rectangle 91" d="M176 286h6v6h-6z"/><path data-name="Rectangle 92" d="M154 286h6v6h-6z"/><path data-name="Rectangle 93" d="M132 286h6v6h-6z"/><path data-name="Rectangle 94" d="M111 286h6v6h-6z"/><path data-name="Rectangle 95" d="M88 286h6v6h-6z"/><path data-name="Rectangle 96" d="M66 286h6v6h-6z"/><path data-name="Rectangle 97" d="M44 286h6v6h-6z"/><path data-name="Rectangle 98" d="M22 286h6v6h-6z"/><path data-name="Rectangle 99" d="M0 286h6v6H0z"/></g><g data-name="Group 99"><path data-name="Rectangle 86" d="M286 36h6v6h-6z"/><path data-name="Rectangle 87" d="M264 36h6v6h-6z"/><path data-name="Rectangle 88" d="M242 36h6v6h-6z"/><path data-name="Rectangle 89" d="M220 36h6v6h-6z"/><path data-name="Rectangle 90" d="M198 36h6v6h-6z"/><path data-name="Rectangle 91" d="M176 36h6v6h-6z"/><path data-name="Rectangle 92" d="M154 36h6v6h-6z"/><path data-name="Rectangle 93" d="M132 36h6v6h-6z"/><path data-name="Rectangle 94" d="M111 36h6v6h-6z"/><path data-name="Rectangle 95" d="M88 36h6v6h-6z"/><path data-name="Rectangle 96" d="M66 36h6v6h-6z"/><path data-name="Rectangle 97" d="M44 36h6v6h-6z"/><path data-name="Rectangle 98" d="M22 36h6v6h-6z"/><path data-name="Rectangle 99" d="M0 36h6v6H0z"/></g><g data-name="Group 104"><path data-name="Rectangle 86" d="M286 126h6v5h-6z"/><path data-name="Rectangle 87" d="M264 126h6v5h-6z"/><path data-name="Rectangle 88" d="M242 126h6v5h-6z"/><path data-name="Rectangle 89" d="M220 126h6v5h-6z"/><path data-name="Rectangle 90" d="M198 126h6v5h-6z"/><path data-name="Rectangle 91" d="M176 126h6v5h-6z"/><path data-name="Rectangle 92" d="M154 126h6v5h-6z"/><path data-name="Rectangle 93" d="M132 126h6v5h-6z"/><path data-name="Rectangle 94" d="M111 126h6v5h-6z"/><path data-name="Rectangle 95" d="M88 126h6v5h-6z"/><path data-name="Rectangle 96" d="M66 126h6v5h-6z"/><path data-name="Rectangle 97" d="M44 126h6v5h-6z"/><path data-name="Rectangle 98" d="M22 126h6v5h-6z"/><path data-name="Rectangle 99" d="M0 126h6v5H0z"/></g><g data-name="Group 109"><path data-name="Rectangle 86" d="M286 215h6v5h-6z"/><path data-name="Rectangle 87" d="M264 215h6v5h-6z"/><path data-name="Rectangle 88" d="M242 215h6v5h-6z"/><path data-name="Rectangle 89" d="M220 215h6v5h-6z"/><path data-name="Rectangle 90" d="M198 215h6v5h-6z"/><path data-name="Rectangle 91" d="M176 215h6v5h-6z"/><path data-name="Rectangle 92" d="M154 215h6v5h-6z"/><path data-name="Rectangle 93" d="M132 215h6v5h-6z"/><path data-name="Rectangle 94" d="M111 215h6v5h-6z"/><path data-name="Rectangle 95" d="M88 215h6v5h-6z"/><path data-name="Rectangle 96" d="M66 215h6v5h-6z"/><path data-name="Rectangle 97" d="M44 215h6v5h-6z"/><path data-name="Rectangle 98" d="M22 215h6v5h-6z"/><path data-name="Rectangle 99" d="M0 215h6v5H0z"/></g><g data-name="Group 114"><path data-name="Rectangle 86" d="M286 304h6v6h-6z"/><path data-name="Rectangle 87" d="M264 304h6v6h-6z"/><path data-name="Rectangle 88" d="M242 304h6v6h-6z"/><path data-name="Rectangle 89" d="M220 304h6v6h-6z"/><path data-name="Rectangle 90" d="M198 304h6v6h-6z"/><path data-name="Rectangle 91" d="M176 304h6v6h-6z"/><path data-name="Rectangle 92" d="M154 304h6v6h-6z"/><path data-name="Rectangle 93" d="M132 304h6v6h-6z"/><path data-name="Rectangle 94" d="M111 304h6v6h-6z"/><path data-name="Rectangle 95" d="M88 304h6v6h-6z"/><path data-name="Rectangle 96" d="M66 304h6v6h-6z"/><path data-name="Rectangle 97" d="M44 304h6v6h-6z"/><path data-name="Rectangle 98" d="M22 304h6v6h-6z"/><path data-name="Rectangle 99" d="M0 304h6v6H0z"/></g><g data-name="Group 100"><path data-name="Rectangle 86" d="M286 54h6v6h-6z"/><path data-name="Rectangle 87" d="M264 54h6v6h-6z"/><path data-name="Rectangle 88" d="M242 54h6v6h-6z"/><path data-name="Rectangle 89" d="M220 54h6v6h-6z"/><path data-name="Rectangle 90" d="M198 54h6v6h-6z"/><path data-name="Rectangle 91" d="M176 54h6v6h-6z"/><path data-name="Rectangle 92" d="M154 54h6v6h-6z"/><path data-name="Rectangle 93" d="M132 54h6v6h-6z"/><path data-name="Rectangle 94" d="M111 54h6v6h-6z"/><path data-name="Rectangle 95" d="M88 54h6v6h-6z"/><path data-name="Rectangle 96" d="M66 54h6v6h-6z"/><path data-name="Rectangle 97" d="M44 54h6v6h-6z"/><path data-name="Rectangle 98" d="M22 54h6v6h-6z"/><path data-name="Rectangle 99" d="M0 54h6v6H0z"/></g><g data-name="Group 103"><path data-name="Rectangle 86" d="M286 143h6v6h-6z"/><path data-name="Rectangle 87" d="M264 143h6v6h-6z"/><path data-name="Rectangle 88" d="M242 143h6v6h-6z"/><path data-name="Rectangle 89" d="M220 143h6v6h-6z"/><path data-name="Rectangle 90" d="M198 143h6v6h-6z"/><path data-name="Rectangle 91" d="M176 143h6v6h-6z"/><path data-name="Rectangle 92" d="M154 143h6v6h-6z"/><path data-name="Rectangle 93" d="M132 143h6v6h-6z"/><path data-name="Rectangle 94" d="M111 143h6v6h-6z"/><path data-name="Rectangle 95" d="M88 143h6v6h-6z"/><path data-name="Rectangle 96" d="M66 143h6v6h-6z"/><path data-name="Rectangle 97" d="M44 143h6v6h-6z"/><path data-name="Rectangle 98" d="M22 143h6v6h-6z"/><path data-name="Rectangle 99" d="M0 143h6v6H0z"/></g><g data-name="Group 108"><path data-name="Rectangle 86" d="M286 233h6v5h-6z"/><path data-name="Rectangle 87" d="M264 233h6v5h-6z"/><path data-name="Rectangle 88" d="M242 233h6v5h-6z"/><path data-name="Rectangle 89" d="M220 233h6v5h-6z"/><path data-name="Rectangle 90" d="M198 233h6v5h-6z"/><path data-name="Rectangle 91" d="M176 233h6v5h-6z"/><path data-name="Rectangle 92" d="M154 233h6v5h-6z"/><path data-name="Rectangle 93" d="M132 233h6v5h-6z"/><path data-name="Rectangle 94" d="M111 233h6v5h-6z"/><path data-name="Rectangle 95" d="M88 233h6v5h-6z"/><path data-name="Rectangle 96" d="M66 233h6v5h-6z"/><path data-name="Rectangle 97" d="M44 233h6v5h-6z"/><path data-name="Rectangle 98" d="M22 233h6v5h-6z"/><path data-name="Rectangle 99" d="M0 233h6v5H0z"/></g><g data-name="Group 113"><path data-name="Rectangle 86" d="M286 323h6v5h-6z"/><path data-name="Rectangle 87" d="M264 323h6v5h-6z"/><path data-name="Rectangle 88" d="M242 323h6v5h-6z"/><path data-name="Rectangle 89" d="M220 323h6v5h-6z"/><path data-name="Rectangle 90" d="M198 323h6v5h-6z"/><path data-name="Rectangle 91" d="M176 323h6v5h-6z"/><path data-name="Rectangle 92" d="M154 323h6v5h-6z"/><path data-name="Rectangle 93" d="M132 323h6v5h-6z"/><path data-name="Rectangle 94" d="M111 323h6v5h-6z"/><path data-name="Rectangle 95" d="M88 323h6v5h-6z"/><path data-name="Rectangle 96" d="M66 323h6v5h-6z"/><path data-name="Rectangle 97" d="M44 323h6v5h-6z"/><path data-name="Rectangle 98" d="M22 323h6v5h-6z"/><path data-name="Rectangle 99" d="M0 323h6v5H0z"/></g><g data-name="Group 101"><path data-name="Rectangle 86" d="M286 72h6v5h-6z"/><path data-name="Rectangle 87" d="M264 72h6v5h-6z"/><path data-name="Rectangle 88" d="M242 72h6v5h-6z"/><path data-name="Rectangle 89" d="M220 72h6v5h-6z"/><path data-name="Rectangle 90" d="M198 72h6v5h-6z"/><path data-name="Rectangle 91" d="M176 72h6v5h-6z"/><path data-name="Rectangle 92" d="M154 72h6v5h-6z"/><path data-name="Rectangle 93" d="M132 72h6v5h-6z"/><path data-name="Rectangle 94" d="M111 72h6v5h-6z"/><path data-name="Rectangle 95" d="M88 72h6v5h-6z"/><path data-name="Rectangle 96" d="M66 72h6v5h-6z"/><path data-name="Rectangle 97" d="M44 72h6v5h-6z"/><path data-name="Rectangle 98" d="M22 72h6v5h-6z"/><path data-name="Rectangle 99" d="M0 72h6v5H0z"/></g><g data-name="Group 102"><path data-name="Rectangle 86" d="M286 162h6v5h-6z"/><path data-name="Rectangle 87" d="M264 162h6v5h-6z"/><path data-name="Rectangle 88" d="M242 162h6v5h-6z"/><path data-name="Rectangle 89" d="M220 162h6v5h-6z"/><path data-name="Rectangle 90" d="M198 162h6v5h-6z"/><path data-name="Rectangle 91" d="M176 162h6v5h-6z"/><path data-name="Rectangle 92" d="M154 162h6v5h-6z"/><path data-name="Rectangle 93" d="M132 162h6v5h-6z"/><path data-name="Rectangle 94" d="M111 162h6v5h-6z"/><path data-name="Rectangle 95" d="M88 162h6v5h-6z"/><path data-name="Rectangle 96" d="M66 162h6v5h-6z"/><path data-name="Rectangle 97" d="M44 162h6v5h-6z"/><path data-name="Rectangle 98" d="M22 162h6v5h-6z"/><path data-name="Rectangle 99" d="M0 162h6v5H0z"/></g><g data-name="Group 107"><path data-name="Rectangle 86" d="M286 251h6v6h-6z"/><path data-name="Rectangle 87" d="M264 251h6v6h-6z"/><path data-name="Rectangle 88" d="M242 251h6v6h-6z"/><path data-name="Rectangle 89" d="M220 251h6v6h-6z"/><path data-name="Rectangle 90" d="M198 251h6v6h-6z"/><path data-name="Rectangle 91" d="M176 251h6v6h-6z"/><path data-name="Rectangle 92" d="M154 251h6v6h-6z"/><path data-name="Rectangle 93" d="M132 251h6v6h-6z"/><path data-name="Rectangle 94" d="M111 251h6v6h-6z"/><path data-name="Rectangle 95" d="M88 251h6v6h-6z"/><path data-name="Rectangle 96" d="M66 251h6v6h-6z"/><path data-name="Rectangle 97" d="M44 251h6v6h-6z"/><path data-name="Rectangle 98" d="M22 251h6v6h-6z"/><path data-name="Rectangle 99" d="M0 251h6v6H0z"/></g><g data-name="Group 112"><path data-name="Rectangle 86" d="M286 340h6v6h-6z"/><path data-name="Rectangle 87" d="M264 340h6v6h-6z"/><path data-name="Rectangle 88" d="M242 340h6v6h-6z"/><path data-name="Rectangle 89" d="M220 340h6v6h-6z"/><path data-name="Rectangle 90" d="M198 340h6v6h-6z"/><path data-name="Rectangle 91" d="M176 340h6v6h-6z"/><path data-name="Rectangle 92" d="M154 340h6v6h-6z"/><path data-name="Rectangle 93" d="M132 340h6v6h-6z"/><path data-name="Rectangle 94" d="M111 340h6v6h-6z"/><path data-name="Rectangle 95" d="M88 340h6v6h-6z"/><path data-name="Rectangle 96" d="M66 340h6v6h-6z"/><path data-name="Rectangle 97" d="M44 340h6v6h-6z"/><path data-name="Rectangle 98" d="M22 340h6v6h-6z"/><path data-name="Rectangle 99" d="M0 340h6v6H0z"/></g></g></svg>