<svg xmlns="http://www.w3.org/2000/svg" width="292" height="346" viewBox="0 0 292 346">
  <g id="Group_224" data-name="Group 224" transform="translate(4340.129 -4462)">
    <g id="Group_97" data-name="Group 97" transform="translate(-4340.129 4462)">
      <rect id="Rectangle_86" data-name="Rectangle 86" width="6" height="6" transform="translate(286)" fill="#0fbf61"/>
      <rect id="Rectangle_87" data-name="Rectangle 87" width="6" height="6" transform="translate(264)" fill="#0fbf61"/>
      <rect id="Rectangle_88" data-name="Rectangle 88" width="6" height="6" transform="translate(242)" fill="#0fbf61"/>
      <rect id="Rectangle_89" data-name="Rectangle 89" width="6" height="6" transform="translate(220)" fill="#0fbf61"/>
      <rect id="Rectangle_90" data-name="Rectangle 90" width="6" height="6" transform="translate(198)" fill="#0fbf61"/>
      <rect id="Rectangle_91" data-name="Rectangle 91" width="6" height="6" transform="translate(176)" fill="#0fbf61"/>
      <rect id="Rectangle_92" data-name="Rectangle 92" width="6" height="6" transform="translate(154)" fill="#0fbf61"/>
      <rect id="Rectangle_93" data-name="Rectangle 93" width="6" height="6" transform="translate(132)" fill="#0fbf61"/>
      <rect id="Rectangle_94" data-name="Rectangle 94" width="6" height="6" transform="translate(111)" fill="#0fbf61"/>
      <rect id="Rectangle_95" data-name="Rectangle 95" width="6" height="6" transform="translate(88)" fill="#0fbf61"/>
      <rect id="Rectangle_96" data-name="Rectangle 96" width="6" height="6" transform="translate(66)" fill="#0fbf61"/>
      <rect id="Rectangle_97" data-name="Rectangle 97" width="6" height="6" transform="translate(44)" fill="#0fbf61"/>
      <rect id="Rectangle_98" data-name="Rectangle 98" width="6" height="6" transform="translate(22)" fill="#0fbf61"/>
      <rect id="Rectangle_99" data-name="Rectangle 99" width="6" height="6" fill="#0fbf61"/>
    </g>
    <g id="Group_106" data-name="Group 106" transform="translate(-4340.129 4551.255)">
      <rect id="Rectangle_86-2" data-name="Rectangle 86" width="6" height="6" transform="translate(286 -0.255)" fill="#0fbf61"/>
      <rect id="Rectangle_87-2" data-name="Rectangle 87" width="6" height="6" transform="translate(264 -0.255)" fill="#0fbf61"/>
      <rect id="Rectangle_88-2" data-name="Rectangle 88" width="6" height="6" transform="translate(242 -0.255)" fill="#0fbf61"/>
      <rect id="Rectangle_89-2" data-name="Rectangle 89" width="6" height="6" transform="translate(220 -0.255)" fill="#0fbf61"/>
      <rect id="Rectangle_90-2" data-name="Rectangle 90" width="6" height="6" transform="translate(198 -0.255)" fill="#0fbf61"/>
      <rect id="Rectangle_91-2" data-name="Rectangle 91" width="6" height="6" transform="translate(176 -0.255)" fill="#0fbf61"/>
      <rect id="Rectangle_92-2" data-name="Rectangle 92" width="6" height="6" transform="translate(154 -0.255)" fill="#0fbf61"/>
      <rect id="Rectangle_93-2" data-name="Rectangle 93" width="6" height="6" transform="translate(132 -0.255)" fill="#0fbf61"/>
      <rect id="Rectangle_94-2" data-name="Rectangle 94" width="6" height="6" transform="translate(111 -0.255)" fill="#0fbf61"/>
      <rect id="Rectangle_95-2" data-name="Rectangle 95" width="6" height="6" transform="translate(88 -0.255)" fill="#0fbf61"/>
      <rect id="Rectangle_96-2" data-name="Rectangle 96" width="6" height="6" transform="translate(66 -0.255)" fill="#0fbf61"/>
      <rect id="Rectangle_97-2" data-name="Rectangle 97" width="6" height="6" transform="translate(44 -0.255)" fill="#0fbf61"/>
      <rect id="Rectangle_98-2" data-name="Rectangle 98" width="6" height="6" transform="translate(22 -0.255)" fill="#0fbf61"/>
      <rect id="Rectangle_99-2" data-name="Rectangle 99" width="6" height="6" transform="translate(0 -0.255)" fill="#0fbf61"/>
    </g>
    <g id="Group_111" data-name="Group 111" transform="translate(-4340.129 4640.51)">
      <rect id="Rectangle_86-3" data-name="Rectangle 86" width="6" height="5" transform="translate(286 0.49)" fill="#0fbf61"/>
      <rect id="Rectangle_87-3" data-name="Rectangle 87" width="6" height="5" transform="translate(264 0.49)" fill="#0fbf61"/>
      <rect id="Rectangle_88-3" data-name="Rectangle 88" width="6" height="5" transform="translate(242 0.49)" fill="#0fbf61"/>
      <rect id="Rectangle_89-3" data-name="Rectangle 89" width="6" height="5" transform="translate(220 0.49)" fill="#0fbf61"/>
      <rect id="Rectangle_90-3" data-name="Rectangle 90" width="6" height="5" transform="translate(198 0.49)" fill="#0fbf61"/>
      <rect id="Rectangle_91-3" data-name="Rectangle 91" width="6" height="5" transform="translate(176 0.49)" fill="#0fbf61"/>
      <rect id="Rectangle_92-3" data-name="Rectangle 92" width="6" height="5" transform="translate(154 0.49)" fill="#0fbf61"/>
      <rect id="Rectangle_93-3" data-name="Rectangle 93" width="6" height="5" transform="translate(132 0.49)" fill="#0fbf61"/>
      <rect id="Rectangle_94-3" data-name="Rectangle 94" width="6" height="5" transform="translate(111 0.49)" fill="#0fbf61"/>
      <rect id="Rectangle_95-3" data-name="Rectangle 95" width="6" height="5" transform="translate(88 0.49)" fill="#0fbf61"/>
      <rect id="Rectangle_96-3" data-name="Rectangle 96" width="6" height="5" transform="translate(66 0.49)" fill="#0fbf61"/>
      <rect id="Rectangle_97-3" data-name="Rectangle 97" width="6" height="5" transform="translate(44 0.49)" fill="#0fbf61"/>
      <rect id="Rectangle_98-3" data-name="Rectangle 98" width="6" height="5" transform="translate(22 0.49)" fill="#0fbf61"/>
      <rect id="Rectangle_99-3" data-name="Rectangle 99" width="6" height="5" transform="translate(0 0.49)" fill="#0fbf61"/>
    </g>
    <g id="Group_116" data-name="Group 116" transform="translate(-4340.129 4730.866)">
      <rect id="Rectangle_86-4" data-name="Rectangle 86" width="6" height="5" transform="translate(286 0.134)" fill="#0fbf61"/>
      <rect id="Rectangle_87-4" data-name="Rectangle 87" width="6" height="5" transform="translate(264 0.134)" fill="#0fbf61"/>
      <rect id="Rectangle_88-4" data-name="Rectangle 88" width="6" height="5" transform="translate(242 0.134)" fill="#0fbf61"/>
      <rect id="Rectangle_89-4" data-name="Rectangle 89" width="6" height="5" transform="translate(220 0.134)" fill="#0fbf61"/>
      <rect id="Rectangle_90-4" data-name="Rectangle 90" width="6" height="5" transform="translate(198 0.134)" fill="#0fbf61"/>
      <rect id="Rectangle_91-4" data-name="Rectangle 91" width="6" height="5" transform="translate(176 0.134)" fill="#0fbf61"/>
      <rect id="Rectangle_92-4" data-name="Rectangle 92" width="6" height="5" transform="translate(154 0.134)" fill="#0fbf61"/>
      <rect id="Rectangle_93-4" data-name="Rectangle 93" width="6" height="5" transform="translate(132 0.134)" fill="#0fbf61"/>
      <rect id="Rectangle_94-4" data-name="Rectangle 94" width="6" height="5" transform="translate(111 0.134)" fill="#0fbf61"/>
      <rect id="Rectangle_95-4" data-name="Rectangle 95" width="6" height="5" transform="translate(88 0.134)" fill="#0fbf61"/>
      <rect id="Rectangle_96-4" data-name="Rectangle 96" width="6" height="5" transform="translate(66 0.134)" fill="#0fbf61"/>
      <rect id="Rectangle_97-4" data-name="Rectangle 97" width="6" height="5" transform="translate(44 0.134)" fill="#0fbf61"/>
      <rect id="Rectangle_98-4" data-name="Rectangle 98" width="6" height="5" transform="translate(22 0.134)" fill="#0fbf61"/>
      <rect id="Rectangle_99-4" data-name="Rectangle 99" width="6" height="5" transform="translate(0 0.134)" fill="#0fbf61"/>
    </g>
    <g id="Group_98" data-name="Group 98" transform="translate(-4340.129 4479.63)">
      <rect id="Rectangle_86-5" data-name="Rectangle 86" width="6" height="5" transform="translate(286 0.37)" fill="#0fbf61"/>
      <rect id="Rectangle_87-5" data-name="Rectangle 87" width="6" height="5" transform="translate(264 0.37)" fill="#0fbf61"/>
      <rect id="Rectangle_88-5" data-name="Rectangle 88" width="6" height="5" transform="translate(242 0.37)" fill="#0fbf61"/>
      <rect id="Rectangle_89-5" data-name="Rectangle 89" width="6" height="5" transform="translate(220 0.37)" fill="#0fbf61"/>
      <rect id="Rectangle_90-5" data-name="Rectangle 90" width="6" height="5" transform="translate(198 0.37)" fill="#0fbf61"/>
      <rect id="Rectangle_91-5" data-name="Rectangle 91" width="6" height="5" transform="translate(176 0.37)" fill="#0fbf61"/>
      <rect id="Rectangle_92-5" data-name="Rectangle 92" width="6" height="5" transform="translate(154 0.37)" fill="#0fbf61"/>
      <rect id="Rectangle_93-5" data-name="Rectangle 93" width="6" height="5" transform="translate(132 0.37)" fill="#0fbf61"/>
      <rect id="Rectangle_94-5" data-name="Rectangle 94" width="6" height="5" transform="translate(111 0.37)" fill="#0fbf61"/>
      <rect id="Rectangle_95-5" data-name="Rectangle 95" width="6" height="5" transform="translate(88 0.37)" fill="#0fbf61"/>
      <rect id="Rectangle_96-5" data-name="Rectangle 96" width="6" height="5" transform="translate(66 0.37)" fill="#0fbf61"/>
      <rect id="Rectangle_97-5" data-name="Rectangle 97" width="6" height="5" transform="translate(44 0.37)" fill="#0fbf61"/>
      <rect id="Rectangle_98-5" data-name="Rectangle 98" width="6" height="5" transform="translate(22 0.37)" fill="#0fbf61"/>
      <rect id="Rectangle_99-5" data-name="Rectangle 99" width="6" height="5" transform="translate(0 0.37)" fill="#0fbf61"/>
    </g>
    <g id="Group_105" data-name="Group 105" transform="translate(-4340.129 4569.987)">
      <rect id="Rectangle_86-6" data-name="Rectangle 86" width="6" height="5" transform="translate(286 0.013)" fill="#0fbf61"/>
      <rect id="Rectangle_87-6" data-name="Rectangle 87" width="6" height="5" transform="translate(264 0.013)" fill="#0fbf61"/>
      <rect id="Rectangle_88-6" data-name="Rectangle 88" width="6" height="5" transform="translate(242 0.013)" fill="#0fbf61"/>
      <rect id="Rectangle_89-6" data-name="Rectangle 89" width="6" height="5" transform="translate(220 0.013)" fill="#0fbf61"/>
      <rect id="Rectangle_90-6" data-name="Rectangle 90" width="6" height="5" transform="translate(198 0.013)" fill="#0fbf61"/>
      <rect id="Rectangle_91-6" data-name="Rectangle 91" width="6" height="5" transform="translate(176 0.013)" fill="#0fbf61"/>
      <rect id="Rectangle_92-6" data-name="Rectangle 92" width="6" height="5" transform="translate(154 0.013)" fill="#0fbf61"/>
      <rect id="Rectangle_93-6" data-name="Rectangle 93" width="6" height="5" transform="translate(132 0.013)" fill="#0fbf61"/>
      <rect id="Rectangle_94-6" data-name="Rectangle 94" width="6" height="5" transform="translate(111 0.013)" fill="#0fbf61"/>
      <rect id="Rectangle_95-6" data-name="Rectangle 95" width="6" height="5" transform="translate(88 0.013)" fill="#0fbf61"/>
      <rect id="Rectangle_96-6" data-name="Rectangle 96" width="6" height="5" transform="translate(66 0.013)" fill="#0fbf61"/>
      <rect id="Rectangle_97-6" data-name="Rectangle 97" width="6" height="5" transform="translate(44 0.013)" fill="#0fbf61"/>
      <rect id="Rectangle_98-6" data-name="Rectangle 98" width="6" height="5" transform="translate(22 0.013)" fill="#0fbf61"/>
      <rect id="Rectangle_99-6" data-name="Rectangle 99" width="6" height="5" transform="translate(0 0.013)" fill="#0fbf61"/>
    </g>
    <g id="Group_110" data-name="Group 110" transform="translate(-4340.129 4659.242)">
      <rect id="Rectangle_86-7" data-name="Rectangle 86" width="6" height="6" transform="translate(286 -0.242)" fill="#0fbf61"/>
      <rect id="Rectangle_87-7" data-name="Rectangle 87" width="6" height="6" transform="translate(264 -0.242)" fill="#0fbf61"/>
      <rect id="Rectangle_88-7" data-name="Rectangle 88" width="6" height="6" transform="translate(242 -0.242)" fill="#0fbf61"/>
      <rect id="Rectangle_89-7" data-name="Rectangle 89" width="6" height="6" transform="translate(220 -0.242)" fill="#0fbf61"/>
      <rect id="Rectangle_90-7" data-name="Rectangle 90" width="6" height="6" transform="translate(198 -0.242)" fill="#0fbf61"/>
      <rect id="Rectangle_91-7" data-name="Rectangle 91" width="6" height="6" transform="translate(176 -0.242)" fill="#0fbf61"/>
      <rect id="Rectangle_92-7" data-name="Rectangle 92" width="6" height="6" transform="translate(154 -0.242)" fill="#0fbf61"/>
      <rect id="Rectangle_93-7" data-name="Rectangle 93" width="6" height="6" transform="translate(132 -0.242)" fill="#0fbf61"/>
      <rect id="Rectangle_94-7" data-name="Rectangle 94" width="6" height="6" transform="translate(111 -0.242)" fill="#0fbf61"/>
      <rect id="Rectangle_95-7" data-name="Rectangle 95" width="6" height="6" transform="translate(88 -0.242)" fill="#0fbf61"/>
      <rect id="Rectangle_96-7" data-name="Rectangle 96" width="6" height="6" transform="translate(66 -0.242)" fill="#0fbf61"/>
      <rect id="Rectangle_97-7" data-name="Rectangle 97" width="6" height="6" transform="translate(44 -0.242)" fill="#0fbf61"/>
      <rect id="Rectangle_98-7" data-name="Rectangle 98" width="6" height="6" transform="translate(22 -0.242)" fill="#0fbf61"/>
      <rect id="Rectangle_99-7" data-name="Rectangle 99" width="6" height="6" transform="translate(0 -0.242)" fill="#0fbf61"/>
    </g>
    <g id="Group_115" data-name="Group 115" transform="translate(-4340.129 4748.497)">
      <rect id="Rectangle_86-8" data-name="Rectangle 86" width="6" height="6" transform="translate(286 -0.497)" fill="#0fbf61"/>
      <rect id="Rectangle_87-8" data-name="Rectangle 87" width="6" height="6" transform="translate(264 -0.497)" fill="#0fbf61"/>
      <rect id="Rectangle_88-8" data-name="Rectangle 88" width="6" height="6" transform="translate(242 -0.497)" fill="#0fbf61"/>
      <rect id="Rectangle_89-8" data-name="Rectangle 89" width="6" height="6" transform="translate(220 -0.497)" fill="#0fbf61"/>
      <rect id="Rectangle_90-8" data-name="Rectangle 90" width="6" height="6" transform="translate(198 -0.497)" fill="#0fbf61"/>
      <rect id="Rectangle_91-8" data-name="Rectangle 91" width="6" height="6" transform="translate(176 -0.497)" fill="#0fbf61"/>
      <rect id="Rectangle_92-8" data-name="Rectangle 92" width="6" height="6" transform="translate(154 -0.497)" fill="#0fbf61"/>
      <rect id="Rectangle_93-8" data-name="Rectangle 93" width="6" height="6" transform="translate(132 -0.497)" fill="#0fbf61"/>
      <rect id="Rectangle_94-8" data-name="Rectangle 94" width="6" height="6" transform="translate(111 -0.497)" fill="#0fbf61"/>
      <rect id="Rectangle_95-8" data-name="Rectangle 95" width="6" height="6" transform="translate(88 -0.497)" fill="#0fbf61"/>
      <rect id="Rectangle_96-8" data-name="Rectangle 96" width="6" height="6" transform="translate(66 -0.497)" fill="#0fbf61"/>
      <rect id="Rectangle_97-8" data-name="Rectangle 97" width="6" height="6" transform="translate(44 -0.497)" fill="#0fbf61"/>
      <rect id="Rectangle_98-8" data-name="Rectangle 98" width="6" height="6" transform="translate(22 -0.497)" fill="#0fbf61"/>
      <rect id="Rectangle_99-8" data-name="Rectangle 99" width="6" height="6" transform="translate(0 -0.497)" fill="#0fbf61"/>
    </g>
    <g id="Group_99" data-name="Group 99" transform="translate(-4340.129 4498.363)">
      <rect id="Rectangle_86-9" data-name="Rectangle 86" width="6" height="6" transform="translate(286 -0.363)" fill="#0fbf61"/>
      <rect id="Rectangle_87-9" data-name="Rectangle 87" width="6" height="6" transform="translate(264 -0.363)" fill="#0fbf61"/>
      <rect id="Rectangle_88-9" data-name="Rectangle 88" width="6" height="6" transform="translate(242 -0.363)" fill="#0fbf61"/>
      <rect id="Rectangle_89-9" data-name="Rectangle 89" width="6" height="6" transform="translate(220 -0.363)" fill="#0fbf61"/>
      <rect id="Rectangle_90-9" data-name="Rectangle 90" width="6" height="6" transform="translate(198 -0.363)" fill="#0fbf61"/>
      <rect id="Rectangle_91-9" data-name="Rectangle 91" width="6" height="6" transform="translate(176 -0.363)" fill="#0fbf61"/>
      <rect id="Rectangle_92-9" data-name="Rectangle 92" width="6" height="6" transform="translate(154 -0.363)" fill="#0fbf61"/>
      <rect id="Rectangle_93-9" data-name="Rectangle 93" width="6" height="6" transform="translate(132 -0.363)" fill="#0fbf61"/>
      <rect id="Rectangle_94-9" data-name="Rectangle 94" width="6" height="6" transform="translate(111 -0.363)" fill="#0fbf61"/>
      <rect id="Rectangle_95-9" data-name="Rectangle 95" width="6" height="6" transform="translate(88 -0.363)" fill="#0fbf61"/>
      <rect id="Rectangle_96-9" data-name="Rectangle 96" width="6" height="6" transform="translate(66 -0.363)" fill="#0fbf61"/>
      <rect id="Rectangle_97-9" data-name="Rectangle 97" width="6" height="6" transform="translate(44 -0.363)" fill="#0fbf61"/>
      <rect id="Rectangle_98-9" data-name="Rectangle 98" width="6" height="6" transform="translate(22 -0.363)" fill="#0fbf61"/>
      <rect id="Rectangle_99-9" data-name="Rectangle 99" width="6" height="6" transform="translate(0 -0.363)" fill="#0fbf61"/>
    </g>
    <g id="Group_104" data-name="Group 104" transform="translate(-4340.129 4587.618)">
      <rect id="Rectangle_86-10" data-name="Rectangle 86" width="6" height="5" transform="translate(286 0.382)" fill="#0fbf61"/>
      <rect id="Rectangle_87-10" data-name="Rectangle 87" width="6" height="5" transform="translate(264 0.382)" fill="#0fbf61"/>
      <rect id="Rectangle_88-10" data-name="Rectangle 88" width="6" height="5" transform="translate(242 0.382)" fill="#0fbf61"/>
      <rect id="Rectangle_89-10" data-name="Rectangle 89" width="6" height="5" transform="translate(220 0.382)" fill="#0fbf61"/>
      <rect id="Rectangle_90-10" data-name="Rectangle 90" width="6" height="5" transform="translate(198 0.382)" fill="#0fbf61"/>
      <rect id="Rectangle_91-10" data-name="Rectangle 91" width="6" height="5" transform="translate(176 0.382)" fill="#0fbf61"/>
      <rect id="Rectangle_92-10" data-name="Rectangle 92" width="6" height="5" transform="translate(154 0.382)" fill="#0fbf61"/>
      <rect id="Rectangle_93-10" data-name="Rectangle 93" width="6" height="5" transform="translate(132 0.382)" fill="#0fbf61"/>
      <rect id="Rectangle_94-10" data-name="Rectangle 94" width="6" height="5" transform="translate(111 0.382)" fill="#0fbf61"/>
      <rect id="Rectangle_95-10" data-name="Rectangle 95" width="6" height="5" transform="translate(88 0.382)" fill="#0fbf61"/>
      <rect id="Rectangle_96-10" data-name="Rectangle 96" width="6" height="5" transform="translate(66 0.382)" fill="#0fbf61"/>
      <rect id="Rectangle_97-10" data-name="Rectangle 97" width="6" height="5" transform="translate(44 0.382)" fill="#0fbf61"/>
      <rect id="Rectangle_98-10" data-name="Rectangle 98" width="6" height="5" transform="translate(22 0.382)" fill="#0fbf61"/>
      <rect id="Rectangle_99-10" data-name="Rectangle 99" width="6" height="5" transform="translate(0 0.382)" fill="#0fbf61"/>
    </g>
    <g id="Group_109" data-name="Group 109" transform="translate(-4340.129 4676.873)">
      <rect id="Rectangle_86-11" data-name="Rectangle 86" width="6" height="5" transform="translate(286 0.127)" fill="#0fbf61"/>
      <rect id="Rectangle_87-11" data-name="Rectangle 87" width="6" height="5" transform="translate(264 0.127)" fill="#0fbf61"/>
      <rect id="Rectangle_88-11" data-name="Rectangle 88" width="6" height="5" transform="translate(242 0.127)" fill="#0fbf61"/>
      <rect id="Rectangle_89-11" data-name="Rectangle 89" width="6" height="5" transform="translate(220 0.127)" fill="#0fbf61"/>
      <rect id="Rectangle_90-11" data-name="Rectangle 90" width="6" height="5" transform="translate(198 0.127)" fill="#0fbf61"/>
      <rect id="Rectangle_91-11" data-name="Rectangle 91" width="6" height="5" transform="translate(176 0.127)" fill="#0fbf61"/>
      <rect id="Rectangle_92-11" data-name="Rectangle 92" width="6" height="5" transform="translate(154 0.127)" fill="#0fbf61"/>
      <rect id="Rectangle_93-11" data-name="Rectangle 93" width="6" height="5" transform="translate(132 0.127)" fill="#0fbf61"/>
      <rect id="Rectangle_94-11" data-name="Rectangle 94" width="6" height="5" transform="translate(111 0.127)" fill="#0fbf61"/>
      <rect id="Rectangle_95-11" data-name="Rectangle 95" width="6" height="5" transform="translate(88 0.127)" fill="#0fbf61"/>
      <rect id="Rectangle_96-11" data-name="Rectangle 96" width="6" height="5" transform="translate(66 0.127)" fill="#0fbf61"/>
      <rect id="Rectangle_97-11" data-name="Rectangle 97" width="6" height="5" transform="translate(44 0.127)" fill="#0fbf61"/>
      <rect id="Rectangle_98-11" data-name="Rectangle 98" width="6" height="5" transform="translate(22 0.127)" fill="#0fbf61"/>
      <rect id="Rectangle_99-11" data-name="Rectangle 99" width="6" height="5" transform="translate(0 0.127)" fill="#0fbf61"/>
    </g>
    <g id="Group_114" data-name="Group 114" transform="translate(-4340.129 4766.127)">
      <rect id="Rectangle_86-12" data-name="Rectangle 86" width="6" height="6" transform="translate(286 -0.127)" fill="#0fbf61"/>
      <rect id="Rectangle_87-12" data-name="Rectangle 87" width="6" height="6" transform="translate(264 -0.127)" fill="#0fbf61"/>
      <rect id="Rectangle_88-12" data-name="Rectangle 88" width="6" height="6" transform="translate(242 -0.127)" fill="#0fbf61"/>
      <rect id="Rectangle_89-12" data-name="Rectangle 89" width="6" height="6" transform="translate(220 -0.127)" fill="#0fbf61"/>
      <rect id="Rectangle_90-12" data-name="Rectangle 90" width="6" height="6" transform="translate(198 -0.127)" fill="#0fbf61"/>
      <rect id="Rectangle_91-12" data-name="Rectangle 91" width="6" height="6" transform="translate(176 -0.127)" fill="#0fbf61"/>
      <rect id="Rectangle_92-12" data-name="Rectangle 92" width="6" height="6" transform="translate(154 -0.127)" fill="#0fbf61"/>
      <rect id="Rectangle_93-12" data-name="Rectangle 93" width="6" height="6" transform="translate(132 -0.127)" fill="#0fbf61"/>
      <rect id="Rectangle_94-12" data-name="Rectangle 94" width="6" height="6" transform="translate(111 -0.127)" fill="#0fbf61"/>
      <rect id="Rectangle_95-12" data-name="Rectangle 95" width="6" height="6" transform="translate(88 -0.127)" fill="#0fbf61"/>
      <rect id="Rectangle_96-12" data-name="Rectangle 96" width="6" height="6" transform="translate(66 -0.127)" fill="#0fbf61"/>
      <rect id="Rectangle_97-12" data-name="Rectangle 97" width="6" height="6" transform="translate(44 -0.127)" fill="#0fbf61"/>
      <rect id="Rectangle_98-12" data-name="Rectangle 98" width="6" height="6" transform="translate(22 -0.127)" fill="#0fbf61"/>
      <rect id="Rectangle_99-12" data-name="Rectangle 99" width="6" height="6" transform="translate(0 -0.127)" fill="#0fbf61"/>
    </g>
    <g id="Group_100" data-name="Group 100" transform="translate(-4340.129 4515.994)">
      <rect id="Rectangle_86-13" data-name="Rectangle 86" width="6" height="6" transform="translate(286 0.006)" fill="#0fbf61"/>
      <rect id="Rectangle_87-13" data-name="Rectangle 87" width="6" height="6" transform="translate(264 0.006)" fill="#0fbf61"/>
      <rect id="Rectangle_88-13" data-name="Rectangle 88" width="6" height="6" transform="translate(242 0.006)" fill="#0fbf61"/>
      <rect id="Rectangle_89-13" data-name="Rectangle 89" width="6" height="6" transform="translate(220 0.006)" fill="#0fbf61"/>
      <rect id="Rectangle_90-13" data-name="Rectangle 90" width="6" height="6" transform="translate(198 0.006)" fill="#0fbf61"/>
      <rect id="Rectangle_91-13" data-name="Rectangle 91" width="6" height="6" transform="translate(176 0.006)" fill="#0fbf61"/>
      <rect id="Rectangle_92-13" data-name="Rectangle 92" width="6" height="6" transform="translate(154 0.006)" fill="#0fbf61"/>
      <rect id="Rectangle_93-13" data-name="Rectangle 93" width="6" height="6" transform="translate(132 0.006)" fill="#0fbf61"/>
      <rect id="Rectangle_94-13" data-name="Rectangle 94" width="6" height="6" transform="translate(111 0.006)" fill="#0fbf61"/>
      <rect id="Rectangle_95-13" data-name="Rectangle 95" width="6" height="6" transform="translate(88 0.006)" fill="#0fbf61"/>
      <rect id="Rectangle_96-13" data-name="Rectangle 96" width="6" height="6" transform="translate(66 0.006)" fill="#0fbf61"/>
      <rect id="Rectangle_97-13" data-name="Rectangle 97" width="6" height="6" transform="translate(44 0.006)" fill="#0fbf61"/>
      <rect id="Rectangle_98-13" data-name="Rectangle 98" width="6" height="6" transform="translate(22 0.006)" fill="#0fbf61"/>
      <rect id="Rectangle_99-13" data-name="Rectangle 99" width="6" height="6" transform="translate(0 0.006)" fill="#0fbf61"/>
    </g>
    <g id="Group_103" data-name="Group 103" transform="translate(-4340.129 4605.249)">
      <rect id="Rectangle_86-14" data-name="Rectangle 86" width="6" height="6" transform="translate(286 -0.249)" fill="#0fbf61"/>
      <rect id="Rectangle_87-14" data-name="Rectangle 87" width="6" height="6" transform="translate(264 -0.249)" fill="#0fbf61"/>
      <rect id="Rectangle_88-14" data-name="Rectangle 88" width="6" height="6" transform="translate(242 -0.249)" fill="#0fbf61"/>
      <rect id="Rectangle_89-14" data-name="Rectangle 89" width="6" height="6" transform="translate(220 -0.249)" fill="#0fbf61"/>
      <rect id="Rectangle_90-14" data-name="Rectangle 90" width="6" height="6" transform="translate(198 -0.249)" fill="#0fbf61"/>
      <rect id="Rectangle_91-14" data-name="Rectangle 91" width="6" height="6" transform="translate(176 -0.249)" fill="#0fbf61"/>
      <rect id="Rectangle_92-14" data-name="Rectangle 92" width="6" height="6" transform="translate(154 -0.249)" fill="#0fbf61"/>
      <rect id="Rectangle_93-14" data-name="Rectangle 93" width="6" height="6" transform="translate(132 -0.249)" fill="#0fbf61"/>
      <rect id="Rectangle_94-14" data-name="Rectangle 94" width="6" height="6" transform="translate(111 -0.249)" fill="#0fbf61"/>
      <rect id="Rectangle_95-14" data-name="Rectangle 95" width="6" height="6" transform="translate(88 -0.249)" fill="#0fbf61"/>
      <rect id="Rectangle_96-14" data-name="Rectangle 96" width="6" height="6" transform="translate(66 -0.249)" fill="#0fbf61"/>
      <rect id="Rectangle_97-14" data-name="Rectangle 97" width="6" height="6" transform="translate(44 -0.249)" fill="#0fbf61"/>
      <rect id="Rectangle_98-14" data-name="Rectangle 98" width="6" height="6" transform="translate(22 -0.249)" fill="#0fbf61"/>
      <rect id="Rectangle_99-14" data-name="Rectangle 99" width="6" height="6" transform="translate(0 -0.249)" fill="#0fbf61"/>
    </g>
    <g id="Group_108" data-name="Group 108" transform="translate(-4340.129 4694.503)">
      <rect id="Rectangle_86-15" data-name="Rectangle 86" width="6" height="5" transform="translate(286 0.497)" fill="#0fbf61"/>
      <rect id="Rectangle_87-15" data-name="Rectangle 87" width="6" height="5" transform="translate(264 0.497)" fill="#0fbf61"/>
      <rect id="Rectangle_88-15" data-name="Rectangle 88" width="6" height="5" transform="translate(242 0.497)" fill="#0fbf61"/>
      <rect id="Rectangle_89-15" data-name="Rectangle 89" width="6" height="5" transform="translate(220 0.497)" fill="#0fbf61"/>
      <rect id="Rectangle_90-15" data-name="Rectangle 90" width="6" height="5" transform="translate(198 0.497)" fill="#0fbf61"/>
      <rect id="Rectangle_91-15" data-name="Rectangle 91" width="6" height="5" transform="translate(176 0.497)" fill="#0fbf61"/>
      <rect id="Rectangle_92-15" data-name="Rectangle 92" width="6" height="5" transform="translate(154 0.497)" fill="#0fbf61"/>
      <rect id="Rectangle_93-15" data-name="Rectangle 93" width="6" height="5" transform="translate(132 0.497)" fill="#0fbf61"/>
      <rect id="Rectangle_94-15" data-name="Rectangle 94" width="6" height="5" transform="translate(111 0.497)" fill="#0fbf61"/>
      <rect id="Rectangle_95-15" data-name="Rectangle 95" width="6" height="5" transform="translate(88 0.497)" fill="#0fbf61"/>
      <rect id="Rectangle_96-15" data-name="Rectangle 96" width="6" height="5" transform="translate(66 0.497)" fill="#0fbf61"/>
      <rect id="Rectangle_97-15" data-name="Rectangle 97" width="6" height="5" transform="translate(44 0.497)" fill="#0fbf61"/>
      <rect id="Rectangle_98-15" data-name="Rectangle 98" width="6" height="5" transform="translate(22 0.497)" fill="#0fbf61"/>
      <rect id="Rectangle_99-15" data-name="Rectangle 99" width="6" height="5" transform="translate(0 0.497)" fill="#0fbf61"/>
    </g>
    <g id="Group_113" data-name="Group 113" transform="translate(-4340.129 4784.86)">
      <rect id="Rectangle_86-16" data-name="Rectangle 86" width="6" height="5" transform="translate(286 0.14)" fill="#0fbf61"/>
      <rect id="Rectangle_87-16" data-name="Rectangle 87" width="6" height="5" transform="translate(264 0.14)" fill="#0fbf61"/>
      <rect id="Rectangle_88-16" data-name="Rectangle 88" width="6" height="5" transform="translate(242 0.14)" fill="#0fbf61"/>
      <rect id="Rectangle_89-16" data-name="Rectangle 89" width="6" height="5" transform="translate(220 0.14)" fill="#0fbf61"/>
      <rect id="Rectangle_90-16" data-name="Rectangle 90" width="6" height="5" transform="translate(198 0.14)" fill="#0fbf61"/>
      <rect id="Rectangle_91-16" data-name="Rectangle 91" width="6" height="5" transform="translate(176 0.14)" fill="#0fbf61"/>
      <rect id="Rectangle_92-16" data-name="Rectangle 92" width="6" height="5" transform="translate(154 0.14)" fill="#0fbf61"/>
      <rect id="Rectangle_93-16" data-name="Rectangle 93" width="6" height="5" transform="translate(132 0.14)" fill="#0fbf61"/>
      <rect id="Rectangle_94-16" data-name="Rectangle 94" width="6" height="5" transform="translate(111 0.14)" fill="#0fbf61"/>
      <rect id="Rectangle_95-16" data-name="Rectangle 95" width="6" height="5" transform="translate(88 0.14)" fill="#0fbf61"/>
      <rect id="Rectangle_96-16" data-name="Rectangle 96" width="6" height="5" transform="translate(66 0.14)" fill="#0fbf61"/>
      <rect id="Rectangle_97-16" data-name="Rectangle 97" width="6" height="5" transform="translate(44 0.14)" fill="#0fbf61"/>
      <rect id="Rectangle_98-16" data-name="Rectangle 98" width="6" height="5" transform="translate(22 0.14)" fill="#0fbf61"/>
      <rect id="Rectangle_99-16" data-name="Rectangle 99" width="6" height="5" transform="translate(0 0.14)" fill="#0fbf61"/>
    </g>
    <g id="Group_101" data-name="Group 101" transform="translate(-4340.129 4533.624)">
      <rect id="Rectangle_86-17" data-name="Rectangle 86" width="6" height="5" transform="translate(286 0.376)" fill="#0fbf61"/>
      <rect id="Rectangle_87-17" data-name="Rectangle 87" width="6" height="5" transform="translate(264 0.376)" fill="#0fbf61"/>
      <rect id="Rectangle_88-17" data-name="Rectangle 88" width="6" height="5" transform="translate(242 0.376)" fill="#0fbf61"/>
      <rect id="Rectangle_89-17" data-name="Rectangle 89" width="6" height="5" transform="translate(220 0.376)" fill="#0fbf61"/>
      <rect id="Rectangle_90-17" data-name="Rectangle 90" width="6" height="5" transform="translate(198 0.376)" fill="#0fbf61"/>
      <rect id="Rectangle_91-17" data-name="Rectangle 91" width="6" height="5" transform="translate(176 0.376)" fill="#0fbf61"/>
      <rect id="Rectangle_92-17" data-name="Rectangle 92" width="6" height="5" transform="translate(154 0.376)" fill="#0fbf61"/>
      <rect id="Rectangle_93-17" data-name="Rectangle 93" width="6" height="5" transform="translate(132 0.376)" fill="#0fbf61"/>
      <rect id="Rectangle_94-17" data-name="Rectangle 94" width="6" height="5" transform="translate(111 0.376)" fill="#0fbf61"/>
      <rect id="Rectangle_95-17" data-name="Rectangle 95" width="6" height="5" transform="translate(88 0.376)" fill="#0fbf61"/>
      <rect id="Rectangle_96-17" data-name="Rectangle 96" width="6" height="5" transform="translate(66 0.376)" fill="#0fbf61"/>
      <rect id="Rectangle_97-17" data-name="Rectangle 97" width="6" height="5" transform="translate(44 0.376)" fill="#0fbf61"/>
      <rect id="Rectangle_98-17" data-name="Rectangle 98" width="6" height="5" transform="translate(22 0.376)" fill="#0fbf61"/>
      <rect id="Rectangle_99-17" data-name="Rectangle 99" width="6" height="5" transform="translate(0 0.376)" fill="#0fbf61"/>
    </g>
    <g id="Group_102" data-name="Group 102" transform="translate(-4340.129 4623.981)">
      <rect id="Rectangle_86-18" data-name="Rectangle 86" width="6" height="5" transform="translate(286 0.019)" fill="#0fbf61"/>
      <rect id="Rectangle_87-18" data-name="Rectangle 87" width="6" height="5" transform="translate(264 0.019)" fill="#0fbf61"/>
      <rect id="Rectangle_88-18" data-name="Rectangle 88" width="6" height="5" transform="translate(242 0.019)" fill="#0fbf61"/>
      <rect id="Rectangle_89-18" data-name="Rectangle 89" width="6" height="5" transform="translate(220 0.019)" fill="#0fbf61"/>
      <rect id="Rectangle_90-18" data-name="Rectangle 90" width="6" height="5" transform="translate(198 0.019)" fill="#0fbf61"/>
      <rect id="Rectangle_91-18" data-name="Rectangle 91" width="6" height="5" transform="translate(176 0.019)" fill="#0fbf61"/>
      <rect id="Rectangle_92-18" data-name="Rectangle 92" width="6" height="5" transform="translate(154 0.019)" fill="#0fbf61"/>
      <rect id="Rectangle_93-18" data-name="Rectangle 93" width="6" height="5" transform="translate(132 0.019)" fill="#0fbf61"/>
      <rect id="Rectangle_94-18" data-name="Rectangle 94" width="6" height="5" transform="translate(111 0.019)" fill="#0fbf61"/>
      <rect id="Rectangle_95-18" data-name="Rectangle 95" width="6" height="5" transform="translate(88 0.019)" fill="#0fbf61"/>
      <rect id="Rectangle_96-18" data-name="Rectangle 96" width="6" height="5" transform="translate(66 0.019)" fill="#0fbf61"/>
      <rect id="Rectangle_97-18" data-name="Rectangle 97" width="6" height="5" transform="translate(44 0.019)" fill="#0fbf61"/>
      <rect id="Rectangle_98-18" data-name="Rectangle 98" width="6" height="5" transform="translate(22 0.019)" fill="#0fbf61"/>
      <rect id="Rectangle_99-18" data-name="Rectangle 99" width="6" height="5" transform="translate(0 0.019)" fill="#0fbf61"/>
    </g>
    <g id="Group_107" data-name="Group 107" transform="translate(-4340.129 4713.236)">
      <rect id="Rectangle_86-19" data-name="Rectangle 86" width="6" height="6" transform="translate(286 -0.236)" fill="#0fbf61"/>
      <rect id="Rectangle_87-19" data-name="Rectangle 87" width="6" height="6" transform="translate(264 -0.236)" fill="#0fbf61"/>
      <rect id="Rectangle_88-19" data-name="Rectangle 88" width="6" height="6" transform="translate(242 -0.236)" fill="#0fbf61"/>
      <rect id="Rectangle_89-19" data-name="Rectangle 89" width="6" height="6" transform="translate(220 -0.236)" fill="#0fbf61"/>
      <rect id="Rectangle_90-19" data-name="Rectangle 90" width="6" height="6" transform="translate(198 -0.236)" fill="#0fbf61"/>
      <rect id="Rectangle_91-19" data-name="Rectangle 91" width="6" height="6" transform="translate(176 -0.236)" fill="#0fbf61"/>
      <rect id="Rectangle_92-19" data-name="Rectangle 92" width="6" height="6" transform="translate(154 -0.236)" fill="#0fbf61"/>
      <rect id="Rectangle_93-19" data-name="Rectangle 93" width="6" height="6" transform="translate(132 -0.236)" fill="#0fbf61"/>
      <rect id="Rectangle_94-19" data-name="Rectangle 94" width="6" height="6" transform="translate(111 -0.236)" fill="#0fbf61"/>
      <rect id="Rectangle_95-19" data-name="Rectangle 95" width="6" height="6" transform="translate(88 -0.236)" fill="#0fbf61"/>
      <rect id="Rectangle_96-19" data-name="Rectangle 96" width="6" height="6" transform="translate(66 -0.236)" fill="#0fbf61"/>
      <rect id="Rectangle_97-19" data-name="Rectangle 97" width="6" height="6" transform="translate(44 -0.236)" fill="#0fbf61"/>
      <rect id="Rectangle_98-19" data-name="Rectangle 98" width="6" height="6" transform="translate(22 -0.236)" fill="#0fbf61"/>
      <rect id="Rectangle_99-19" data-name="Rectangle 99" width="6" height="6" transform="translate(0 -0.236)" fill="#0fbf61"/>
    </g>
    <g id="Group_112" data-name="Group 112" transform="translate(-4340.129 4802.49)">
      <rect id="Rectangle_86-20" data-name="Rectangle 86" width="6" height="6" transform="translate(286 -0.49)" fill="#0fbf61"/>
      <rect id="Rectangle_87-20" data-name="Rectangle 87" width="6" height="6" transform="translate(264 -0.49)" fill="#0fbf61"/>
      <rect id="Rectangle_88-20" data-name="Rectangle 88" width="6" height="6" transform="translate(242 -0.49)" fill="#0fbf61"/>
      <rect id="Rectangle_89-20" data-name="Rectangle 89" width="6" height="6" transform="translate(220 -0.49)" fill="#0fbf61"/>
      <rect id="Rectangle_90-20" data-name="Rectangle 90" width="6" height="6" transform="translate(198 -0.49)" fill="#0fbf61"/>
      <rect id="Rectangle_91-20" data-name="Rectangle 91" width="6" height="6" transform="translate(176 -0.49)" fill="#0fbf61"/>
      <rect id="Rectangle_92-20" data-name="Rectangle 92" width="6" height="6" transform="translate(154 -0.49)" fill="#0fbf61"/>
      <rect id="Rectangle_93-20" data-name="Rectangle 93" width="6" height="6" transform="translate(132 -0.49)" fill="#0fbf61"/>
      <rect id="Rectangle_94-20" data-name="Rectangle 94" width="6" height="6" transform="translate(111 -0.49)" fill="#0fbf61"/>
      <rect id="Rectangle_95-20" data-name="Rectangle 95" width="6" height="6" transform="translate(88 -0.49)" fill="#0fbf61"/>
      <rect id="Rectangle_96-20" data-name="Rectangle 96" width="6" height="6" transform="translate(66 -0.49)" fill="#0fbf61"/>
      <rect id="Rectangle_97-20" data-name="Rectangle 97" width="6" height="6" transform="translate(44 -0.49)" fill="#0fbf61"/>
      <rect id="Rectangle_98-20" data-name="Rectangle 98" width="6" height="6" transform="translate(22 -0.49)" fill="#0fbf61"/>
      <rect id="Rectangle_99-20" data-name="Rectangle 99" width="6" height="6" transform="translate(0 -0.49)" fill="#0fbf61"/>
    </g>
  </g>
</svg>
